<svg width="80" height="80" viewBox="0 0 80 80" fill="none" xmlns="http://www.w3.org/2000/svg">
<path fill-rule="evenodd" clip-rule="evenodd" d="M27.4094 1.98428C15.8784 5.68428 5.52645 16.1583 1.89245 27.8013C-7.76055 58.7333 21.1225 87.6163 52.0545 77.9633C63.8745 74.2733 74.2364 63.9113 77.9264 52.0913C87.6094 21.0633 58.3614 -7.94772 27.4094 1.98428ZM37.6185 7.57028C37.2285 7.96028 36.9095 14.7153 36.9095 22.5803V36.8803L25.6594 37.1633L14.4094 37.4463V39.9463V42.4463L28.6824 42.7243L42.9555 43.0013L42.6824 25.2243C42.4204 8.19328 42.3235 7.43428 40.3685 7.15428C39.2455 6.99328 38.0085 7.18128 37.6185 7.57028Z" fill="#C6922F"/>
</svg>
