<svg width="76" height="76" viewBox="0 0 76 76" fill="none" xmlns="http://www.w3.org/2000/svg">
<path fill-rule="evenodd" clip-rule="evenodd" d="M2.1025 2.1481C0.3825 3.8681 0.3825 73.0281 2.1025 74.7481C2.9905 75.6361 12.4535 75.9481 38.4805 75.9481C68.3925 75.9481 73.8425 75.7251 74.8915 74.4611C76.6515 72.3411 75.3415 68.2991 72.6635 67.5811C71.4195 67.2481 56.7905 66.9691 40.1525 66.9621L9.9025 66.9481V36.5131C9.9025 19.1581 9.4835 4.9761 8.9275 3.5131C7.8675 0.725098 4.2485 0.00209808 2.1025 2.1481ZM60.6605 22.6781L50.9305 32.4071L45.6355 27.1781C42.7225 24.3011 39.4255 21.9481 38.3085 21.9481C36.2665 21.9481 16.9025 40.6781 16.9025 42.6531C16.9025 44.0791 20.3125 46.9481 22.0085 46.9481C22.8045 46.9481 26.5825 43.7981 30.4025 39.9481C34.2225 36.0981 37.8275 32.9481 38.4135 32.9481C38.9985 32.9481 41.6935 35.1981 44.4025 37.9481C47.1115 40.6981 50.0125 42.9481 50.8495 42.9481C53.3585 42.9481 75.9025 19.8231 75.9025 17.2491C75.9025 15.2511 73.3905 12.9481 71.2115 12.9481C70.7595 12.9481 66.0115 17.3261 60.6605 22.6781Z" fill="#C6922F"/>
</svg>
