<svg width="75" height="75" viewBox="0 0 75 75" fill="none" xmlns="http://www.w3.org/2000/svg">
<path fill-rule="evenodd" clip-rule="evenodd" d="M63.3613 3.40031C62.0113 4.75031 60.9062 6.67131 60.9062 7.66931C60.9062 10.2693 51.5923 17.3243 47.1693 18.0743C42.4103 18.8813 36.1782 15.9493 33.3932 11.5933C30.6132 7.24631 25.9763 6.76931 23.0223 10.5253C21.8583 12.0043 20.8983 13.7173 20.8883 14.3303C20.8543 16.4593 11.4333 21.7683 8.63725 21.2343C5.52425 20.6393 0.90625 24.6473 0.90625 27.9453C0.90625 30.6433 5.20825 34.9453 7.90625 34.9453C10.2903 34.9453 14.9062 30.7573 14.9062 28.5953C14.9062 26.0243 24.1202 20.9453 28.7832 20.9453C34.0302 20.9453 40.1443 23.9763 41.6753 27.3373C44.0993 32.6573 52.6142 31.8363 54.4792 26.1033C55.9042 21.7233 63.5502 15.0433 67.2012 14.9883C70.5212 14.9373 74.9062 10.9283 74.9062 7.94531C74.9062 5.24731 70.6042 0.945312 67.9062 0.945312C66.7563 0.945312 64.7113 2.05031 63.3613 3.40031ZM62.1062 29.1453C61.2442 30.0073 60.9062 36.6343 60.9062 52.6453V74.9453H67.9062H74.9062V52.6453C74.9062 36.6343 74.5683 30.0073 73.7063 29.1453C73.0463 28.4853 70.4362 27.9453 67.9062 27.9453C65.3763 27.9453 62.7662 28.4853 62.1062 29.1453ZM21.5132 36.5273C21.1792 37.3973 20.9062 46.3973 20.9062 56.5273V74.9453H27.9062H34.9062V56.5273C34.9062 46.3973 34.6333 37.3973 34.2993 36.5273C33.4283 34.2573 22.3842 34.2573 21.5132 36.5273ZM42.1063 42.1453C41.2743 42.9773 40.9062 48.1893 40.9062 59.1453V74.9453H47.9062H54.9062V59.1453C54.9062 48.1893 54.5383 42.9773 53.7063 42.1453C53.0463 41.4853 50.4362 40.9453 47.9062 40.9453C45.3763 40.9453 42.7663 41.4853 42.1063 42.1453ZM2.10625 49.1453C1.30325 49.9483 0.90625 54.4123 0.90625 62.6453V74.9453H7.90625H14.9062V62.6453C14.9062 54.4123 14.5092 49.9483 13.7062 49.1453C13.0462 48.4853 10.4362 47.9453 7.90625 47.9453C5.37625 47.9453 2.76625 48.4853 2.10625 49.1453Z" fill="#C6922F"/>
</svg>
