<svg width="76" height="75" viewBox="0 0 76 75" fill="none" xmlns="http://www.w3.org/2000/svg">
<path fill-rule="evenodd" clip-rule="evenodd" d="M2.56125 1.77732C1.08925 3.40332 0.90625 7.37332 0.90625 37.6223C0.90625 69.3063 1.03125 71.7513 2.73525 73.2933C4.36125 74.7653 8.33125 74.9483 38.5802 74.9483C70.2642 74.9483 72.7093 74.8233 74.2513 73.1193C76.3723 70.7763 76.3362 69.6483 74.0772 67.6033C72.4582 66.1383 68.6793 65.9483 41.0773 65.9483H9.90625V34.6033C9.90625 5.50632 9.77525 3.13932 8.07725 1.60332C5.73425 -0.517681 4.60625 -0.481681 2.56125 1.77732Z" fill="#C6922F"/>
<path fill-rule="evenodd" clip-rule="evenodd" d="M33.743 22.1782L42.972 31.4082L48.268 26.1782C51.18 23.3022 54.458 20.9492 55.551 20.9492C58.228 20.9492 76 38.8262 76 41.5182C76 43.9452 74.202 45.9492 72.023 45.9492C71.156 45.9492 67.32 42.7992 63.5 38.9492C59.68 35.0992 56.075 31.9492 55.489 31.9492C54.904 31.9492 52.209 34.1992 49.5 36.9492C46.791 39.6992 43.859 41.9492 42.984 41.9492C41.459 41.9492 18 19.0302 18 17.5412C18 17.1432 18.466 15.9472 19.035 14.8832C21.071 11.0792 24.191 12.6272 33.743 22.1782Z" fill="#C6922F"/>
</svg>
