<svg width="95" height="89" viewBox="0 0 95 89" fill="none" xmlns="http://www.w3.org/2000/svg">
<path fill-rule="evenodd" clip-rule="evenodd" d="M8.58325 0.597747C8.21125 0.970747 7.90625 2.29775 7.90625 3.54775C7.90625 5.45275 7.29825 5.87175 4.15625 6.13175L0.40625 6.44175V32.4417V58.4417L18.1562 58.7147L35.9062 58.9877V62.4647V65.9417H30.4062C27.1732 65.9417 24.9062 66.3818 24.9062 67.0098C24.9062 68.5698 42.9692 88.4417 44.3872 88.4417C45.9352 88.4417 64.9992 67.3677 64.1862 66.5547C63.8492 66.2177 61.1733 65.9417 58.2393 65.9417H52.9062V62.4647V58.9877L70.6562 58.7147L88.4062 58.4417L88.7172 55.7527C88.9572 53.6737 89.6382 52.9927 91.7172 52.7527L94.4062 52.4417V26.4417V0.441747L51.8332 0.180747C28.4182 0.0377469 8.95625 0.225747 8.58325 0.597747ZM50.4062 5.92375L88.4062 6.44175L88.9372 27.4417L89.4672 48.4417L89.6872 26.6917L89.9062 4.94175L51.1562 5.17375L12.4062 5.40575L50.4062 5.92375ZM4.90625 12.5247C4.90625 14.2907 7.05925 13.9837 7.67725 12.1297C7.89525 11.4757 7.36025 10.9417 6.48925 10.9417C5.61925 10.9417 4.90625 11.6537 4.90625 12.5247ZM12.4792 13.8007C11.6662 15.3737 9.62925 17.2277 7.95325 17.9217L4.90625 19.1847V32.4417V45.6987L7.95325 46.9617C9.62925 47.6557 11.6662 49.5097 12.4792 51.0827L13.9573 53.9417H44.4062H74.8552L76.3333 51.0827C77.1463 49.5097 79.1833 47.6557 80.8593 46.9617L83.9062 45.6987V32.4417V19.1847L80.8593 17.9217C79.1833 17.2277 77.1463 15.3737 76.3333 13.8007L74.8552 10.9417H44.4062H13.9573L12.4792 13.8007ZM81.1352 12.1297C81.7532 13.9837 83.9062 14.2907 83.9062 12.5247C83.9062 11.6537 83.1932 10.9417 82.3232 10.9417C81.4522 10.9417 80.9172 11.4757 81.1352 12.1297ZM39.0513 12.9577C34.0743 15.0647 30.5862 18.4337 28.3002 23.3427C25.2822 29.8237 25.2933 35.0837 28.3403 41.6277C33.1883 52.0387 44.6543 55.6837 53.7093 49.6907C65.2613 42.0467 65.3693 22.9087 53.9053 15.3217C49.5713 12.4537 42.7913 11.3757 39.0513 12.9577ZM39.4062 17.8427C29.0382 22.4077 28.0732 39.1707 37.8042 45.6717C49.0662 53.1957 62.2613 39.0987 56.5353 25.6597C54.4103 20.6727 50.6273 17.7617 45.7183 17.3357C43.3473 17.1297 40.5063 17.3577 39.4062 17.8427ZM11.9062 29.9417C10.8062 31.0417 9.90625 32.6167 9.90625 33.4417C9.90625 35.3797 13.4683 38.9417 15.4062 38.9417C17.3442 38.9417 20.9062 35.3797 20.9062 33.4417C20.9062 31.5037 17.3442 27.9417 15.4062 27.9417C14.5813 27.9417 13.0063 28.8417 11.9062 29.9417ZM69.9062 29.9417C68.8062 31.0417 67.9062 32.6167 67.9062 33.4417C67.9062 35.3797 71.4683 38.9417 73.4062 38.9417C75.3442 38.9417 78.9062 35.3797 78.9062 33.4417C78.9062 31.5037 75.3442 27.9417 73.4062 27.9417C72.5813 27.9417 71.0063 28.8417 69.9062 29.9417ZM4.90625 52.3587C4.90625 53.2297 5.61925 53.9417 6.48925 53.9417C7.36025 53.9417 7.89525 53.4077 7.67725 52.7547C7.05925 50.8997 4.90625 50.5927 4.90625 52.3587ZM81.5732 51.6087C80.4222 52.7587 80.8442 53.9417 82.4062 53.9417C83.2312 53.9417 83.9062 53.2667 83.9062 52.4417C83.9062 50.8797 82.7232 50.4577 81.5732 51.6087ZM40.7062 64.6917C40.4092 70.3787 40.3702 70.4448 37.1502 70.7558L33.8932 71.0697L38.6502 76.4928C41.2662 79.4758 43.8562 81.9167 44.4062 81.9167C44.9563 81.9167 47.5463 79.4758 50.1623 76.4928L54.9193 71.0697L51.6623 70.7558C48.4423 70.4448 48.4033 70.3787 48.1063 64.6917L47.8063 58.9417H44.4062H41.0062L40.7062 64.6917Z" fill="#C6922F"/>
</svg>
