<svg width="44" height="73" viewBox="0 0 44 73" fill="none" xmlns="http://www.w3.org/2000/svg">
<path fill-rule="evenodd" clip-rule="evenodd" d="M14.765 20.0453C6.251 31.0593 0 40.0563 0 41.2953C0 43.3183 0.542 43.4613 9.25 43.7323C14.391 43.8913 18.5 44.4523 18.5 44.9933C18.5 45.5293 16.441 51.3503 13.924 57.9293C11.408 64.5083 9.634 70.3523 9.983 70.9173C11.957 74.1113 14.979 71.2802 29.232 52.8802C37.938 41.6422 44 32.9193 44 31.6303C44 29.5603 43.508 29.4293 34.75 29.1563C29.609 28.9973 25.5 28.4363 25.5 27.8953C25.5 27.3593 27.559 21.5383 30.076 14.9593C32.592 8.38025 34.366 2.53625 34.017 1.97125C32.038 -1.22975 29.022 1.60225 14.765 20.0453Z" fill="#C6922F"/>
</svg>
