<svg width="93" height="88" viewBox="0 0 93 88" fill="none" xmlns="http://www.w3.org/2000/svg">
<path fill-rule="evenodd" clip-rule="evenodd" d="M8.41283 1.16312C8.11883 1.92912 7.99683 17.8521 8.14183 36.5491L8.40583 70.5421L11.9058 70.7851C20.5228 71.3851 31.0028 73.4851 38.3958 76.0951L46.4198 78.9271L54.4188 76.0971C61.7858 73.4901 72.2798 71.3861 80.9058 70.7851L84.4058 70.5421V35.5421V0.542123L76.4698 0.792123C67.8668 1.06312 58.1088 3.12912 50.7588 6.23612C46.5098 8.03212 45.8618 8.07012 43.1878 6.68812C35.0438 2.47612 9.46883 -1.58688 8.41283 1.16312ZM12.9058 35.3811V65.9511L16.1558 66.4531C17.9438 66.7281 21.6558 67.2421 24.4058 67.5931C27.1558 67.9451 32.6688 69.2671 36.6558 70.5311L43.9058 72.8301V42.4111V11.9921L41.1558 10.9291C36.4538 9.11112 24.6478 6.27912 18.6428 5.52812L12.9058 4.81212V35.3811ZM65.9058 7.02612C61.2308 8.03912 55.6058 9.51512 53.4058 10.3061L49.4058 11.7431L49.1418 42.2911L48.8768 72.8391L56.1418 70.5361C60.1368 69.2691 65.6558 67.9451 68.4058 67.5931C71.1558 67.2421 74.8688 66.7281 76.6558 66.4531L79.9058 65.9511V35.4971V5.04212L77.1558 5.11212C75.6428 5.15112 70.5808 6.01212 65.9058 7.02612ZM0.388829 11.2261C0.107829 11.9581 -0.00317059 27.4041 0.141829 45.5501L0.405829 78.5421L9.34783 79.2231C21.2448 80.1281 29.4768 81.6231 38.8188 84.5741L46.5488 87.0161L51.9768 85.1091C59.6888 82.4001 71.8578 80.1001 82.9058 79.2621L92.4058 78.5421V44.5421C92.4058 11.2091 92.3668 10.5421 90.4058 10.5421C88.4538 10.5421 88.3998 11.2971 88.1418 42.2221L87.8778 73.9021L82.1418 74.4971C69.7298 75.7861 61.0818 77.3531 53.8918 79.6151L46.3788 81.9801L38.8918 79.6131C31.7358 77.3511 23.1258 75.7911 10.6698 74.4971L4.93383 73.9021L4.66983 42.2351C4.42583 12.9721 4.27283 10.5431 2.65283 10.2311C1.68883 10.0461 0.669829 10.4931 0.388829 11.2261Z" fill="#C6922F"/>
</svg>
