<svg width="93" height="64" viewBox="0 0 93 64" fill="none" xmlns="http://www.w3.org/2000/svg">
<path fill-rule="evenodd" clip-rule="evenodd" d="M7.36325 1.89826C0.68725 5.96926 0.40625 7.16626 0.40625 31.5353C0.40625 53.1523 0.44825 53.5933 2.80525 56.8983C7.06825 62.8763 8.19925 63.0353 46.4062 63.0353C84.6133 63.0353 85.7442 62.8763 90.0072 56.8983C92.3642 53.5933 92.4062 53.1523 92.4062 31.5353C92.4062 10.1013 92.3462 9.45126 90.0772 6.27026C85.6282 0.0322642 85.6473 0.0352631 46.2062 0.0392631C13.0993 0.0422631 10.1772 0.182264 7.36325 1.89826ZM8.93425 9.72626C7.77025 11.2073 6.95025 13.3443 7.11225 14.4763C7.40325 16.5143 7.79825 16.5353 46.4062 16.5353C85.0143 16.5353 85.4092 16.5143 85.7002 14.4763C85.8622 13.3443 85.0423 11.2073 83.8783 9.72626L81.7613 7.03526H46.4062H11.0513L8.93425 9.72626ZM6.90625 38.4003C6.90625 49.3953 7.13625 51.0573 8.97925 53.4003L11.0513 56.0353H46.4062H81.7613L83.8333 53.4003C85.6763 51.0573 85.9062 49.3953 85.9062 38.4003V26.0353H46.4062H6.90625V38.4003ZM59.6092 42.6663C58.0332 44.2423 59.0303 47.1323 61.4713 48.0603C64.7943 49.3233 72.0542 49.3093 75.4102 48.0333C77.3572 47.2933 77.9613 46.4453 77.7253 44.7833C77.4263 42.6793 76.8583 42.5173 68.8593 42.2493C64.1583 42.0923 59.9952 42.2793 59.6092 42.6663Z" fill="#C6922F"/>
</svg>
