<svg width="81" height="87" viewBox="0 0 81 87" fill="none" xmlns="http://www.w3.org/2000/svg">
<path fill-rule="evenodd" clip-rule="evenodd" d="M34.4634 1.47369C33.3364 2.32569 30.3474 2.94169 27.3354 2.94169C20.1174 2.94169 19.0974 4.39369 21.5424 11.1937L23.4284 16.4417H40.4044H57.3804L59.2664 11.1937C61.7114 4.39369 60.6914 2.94169 53.4734 2.94169C50.4614 2.94169 47.4724 2.32569 46.3454 1.47369C43.8444 -0.418313 36.9644 -0.418313 34.4634 1.47369ZM19.7464 26.6917C9.21335 37.7757 2.86735 48.9697 0.824353 60.0677C-1.29565 71.5817 2.70835 81.1327 11.2884 85.0287C14.9574 86.6947 18.1224 86.8977 40.4044 86.8977C68.4524 86.8977 71.2234 86.3477 76.1784 79.8007C85.1814 67.9027 79.6874 47.2187 62.4694 28.1917L57.7194 22.9417H40.5144H23.3104L19.7464 26.6917ZM37.6174 35.5627C37.2254 35.9547 36.9044 37.3247 36.9044 38.6087C36.9044 39.9627 36.3054 40.9417 35.4774 40.9417C33.4164 40.9417 29.9044 45.7957 29.9044 48.6427C29.9044 53.1447 31.6954 54.7947 38.9194 56.9457C44.1274 58.4977 45.9044 59.4737 45.9044 60.7837C45.9044 65.1157 38.7094 66.5937 35.4044 62.9417C33.5294 60.8697 30.4284 60.2847 29.4774 61.8237C28.7284 63.0357 32.5234 67.6857 34.8684 68.4307C36.0014 68.7897 36.9084 70.1387 37.0924 71.7397C37.3544 74.0057 37.8884 74.4417 40.4044 74.4417C42.8524 74.4417 43.4634 73.9817 43.7254 71.9417C43.9154 70.4627 45.3164 68.6247 47.1554 67.4417C51.1244 64.8877 52.5024 60.9587 50.7264 57.2657C49.7084 55.1517 48.0234 54.0997 43.4044 52.6947C35.9504 50.4277 34.3634 49.0637 36.2224 46.5217C37.8804 44.2547 42.3684 44.1467 44.7664 46.3167C46.6564 48.0267 50.9044 48.5527 50.9044 47.0767C50.9044 45.5227 46.7934 40.9417 45.3984 40.9417C44.6494 40.9417 43.8944 39.7047 43.7204 38.1917C43.4794 36.0957 42.8004 35.3717 40.8674 35.1457C39.4714 34.9827 38.0084 35.1707 37.6174 35.5627Z" fill="#C6922F"/>
</svg>
