<svg width="100" height="99" viewBox="0 0 100 99" fill="none" xmlns="http://www.w3.org/2000/svg">
<path fill-rule="evenodd" clip-rule="evenodd" d="M30.8158 2.36697C27.9188 3.89697 25.3808 6.35497 23.4088 9.54197C20.6218 14.046 20.4088 15.071 20.4088 23.965C20.4088 32.293 20.7628 34.294 23.1278 39.341C24.6228 42.533 26.7598 46.306 27.8778 47.726C30.3718 50.898 30.5008 55.232 28.1588 57.196C27.1968 58.003 24.3838 59.506 21.9088 60.536C14.8498 63.474 4.58179 70.581 2.65879 73.862C0.0487946 78.315 0.345794 85.162 3.26879 87.908C7.05379 91.464 14.9018 93.87 26.7638 95.112C37.4728 96.234 51.1738 96.108 52.4048 94.877C52.7358 94.545 51.8608 92.584 50.4598 90.519C46.9068 85.284 45.6068 79.655 46.1568 71.888C46.4788 67.337 47.4118 63.833 49.1118 60.792C50.4778 58.347 51.6348 54.967 51.6828 53.28C51.7318 51.553 53.1158 48.355 54.8498 45.961C61.0908 37.347 63.5648 22.985 60.3698 13.929C56.1748 2.03797 41.9638 -3.52103 30.8158 2.36697ZM68.9028 50.914C57.4868 54.657 51.4618 62.819 51.4618 74.539C51.4618 82.094 53.0228 86.259 57.7728 91.381C62.4158 96.386 67.6178 98.48 75.4088 98.48C83.1998 98.48 88.4018 96.386 93.0448 91.381C97.7948 86.259 99.3558 82.094 99.3558 74.539C99.3558 64.467 95.0788 57.257 86.4808 52.836C82.1908 50.631 72.8728 49.612 68.9028 50.914ZM72.6218 61.66C72.2298 62.052 71.9088 64.298 71.9088 66.651V70.929L67.1588 71.234C62.6158 71.526 62.4088 71.669 62.4088 74.539C62.4088 77.404 62.6208 77.553 67.1058 77.842L71.8038 78.144L72.1058 82.842C72.3948 87.327 72.5438 87.539 75.4088 87.539C78.2738 87.539 78.4228 87.327 78.7118 82.842L79.0138 78.144L83.7118 77.842C88.1968 77.553 88.4088 77.404 88.4088 74.539C88.4088 71.674 88.1968 71.525 83.7118 71.236L79.0138 70.934L78.7118 66.236C78.4418 62.047 78.1348 61.507 75.8718 61.243C74.4758 61.08 73.0128 61.268 72.6218 61.66Z" fill="#C6922F"/>
</svg>
