<svg width="80" height="71" viewBox="0 0 80 71" fill="none" xmlns="http://www.w3.org/2000/svg">
<path fill-rule="evenodd" clip-rule="evenodd" d="M68.9273 1.0614C68.2394 1.73566 67.6768 2.98318 67.6768 3.83467C67.6768 4.68516 66.6535 5.8218 65.404 6.35942C63.3101 7.25942 63.1081 8.07625 62.8354 16.7426C62.4879 27.7733 62.9606 30.2604 65.5586 31.0683C66.6131 31.397 67.7616 32.7822 68.1111 34.1475C68.4606 35.5119 69.4212 36.8832 70.2455 37.1931C72.1444 37.9069 74.7475 35.8376 74.7475 33.6119C74.7475 32.6772 75.8838 31.404 77.2727 30.7842C79.7535 29.6763 79.798 29.4545 79.798 18.2673C79.798 7.01685 79.7677 6.87229 77.3303 6.27229C75.6121 5.84952 74.7687 4.86635 74.5525 3.03566C74.2071 0.104966 71.0374 -1.00692 68.9273 1.0614ZM27.4748 12.9802C26.8081 13.6337 26.2626 14.9812 26.2626 15.9753C26.2626 16.9683 25.1879 18.1822 23.8748 18.6713C20.6657 19.8673 20.202 21.4366 20.202 31.099C20.202 40.7168 20.6707 42.3327 23.798 43.498C25.0899 43.9792 26.2535 45.3634 26.4374 46.6396C26.9576 50.2307 31.102 50.304 32.3677 46.7446C32.9192 45.197 34.3838 43.4931 35.6242 42.9594C37.7606 42.0406 37.8788 41.4178 37.8788 31.099C37.8788 20.8347 37.7515 20.1535 35.6616 19.2535C34.4414 18.7297 33.1556 17.1743 32.804 15.798C31.8556 12.098 29.595 10.902 27.4748 12.9802ZM47.4303 19.4139C46.8788 20.9614 45.4141 22.6654 44.1737 23.199C42.0374 24.1178 41.9192 24.7406 41.9192 35.0594C41.9192 45.3782 42.0374 46.001 44.1737 46.9198C45.4141 47.4535 46.8788 49.1574 47.4303 50.705C48.696 54.2644 52.8404 54.1911 53.3606 50.6C53.5444 49.3238 54.7081 47.9396 56 47.4584C59.1273 46.2931 59.596 44.6772 59.596 35.0594C59.596 25.4416 59.1273 23.8258 56 22.6604C54.7081 22.1792 53.5444 20.7951 53.3606 19.5188C52.8404 15.9277 48.696 15.8545 47.4303 19.4139ZM6.26263 33.7723C5.59596 34.4258 5.05051 35.6911 5.05051 36.5832C5.05051 37.4763 3.91414 38.7149 2.52525 39.3347C0.0444444 40.4426 0 40.6644 0 51.8515C0 63.1733 0.0151516 63.2436 2.52525 63.8604C4.3495 64.3099 5.05051 65.1475 5.05051 66.8812C5.05051 71.2871 11.2283 71.0446 11.9101 66.6109C12.0717 65.5614 13.2081 64.2703 14.4354 63.7426C16.4788 62.8634 16.6919 61.9881 16.9626 53.3763C17.3061 42.4594 16.8323 39.8574 14.3616 39.0881C13.3737 38.7812 12.0505 37.1921 11.4212 35.5564C10.2202 32.4376 8.30202 31.7733 6.26263 33.7723Z" fill="#C6922F"/>
</svg>
