<svg width="69" height="69" viewBox="0 0 69 69" fill="none" xmlns="http://www.w3.org/2000/svg">
<path fill-rule="evenodd" clip-rule="evenodd" d="M21.9195 3.1561C14.3095 6.0771 5.9525 14.5391 3.0715 22.2401C-1.8385 35.3611 1.1005 49.2971 10.8285 59.0251C17.8385 66.0351 24.9015 68.9451 34.9085 68.9451C44.9155 68.9451 51.9785 66.0351 58.9885 59.0251C65.9695 52.0441 68.9085 44.9431 68.9085 35.0571C68.9085 25.6811 67.5035 21.9451 63.9775 21.9451C60.2335 21.9451 59.9685 22.4551 61.4945 26.7311C67.5345 43.6481 53.3675 62.9451 34.9085 62.9451C19.9195 62.9451 6.9085 49.9341 6.9085 34.9451C6.9085 19.7401 20.0445 6.8241 35.3405 6.9891C37.5775 7.0131 41.0795 7.62909 43.1225 8.35909C47.3985 9.88509 47.9085 9.62009 47.9085 5.87609C47.9085 3.70709 47.2565 2.91309 44.7595 2.04309C39.5615 0.231095 28.0835 0.790096 21.9195 3.1561ZM54.4975 4.02209C52.8935 5.92809 51.9085 8.3151 51.9085 10.2951C51.9085 12.9541 50.6005 14.7921 44.1365 21.2181C39.4585 25.8691 35.5395 28.9451 34.2915 28.9451C29.5635 28.9451 27.1305 36.0261 30.7375 39.2901C34.4705 42.6691 40.9085 40.1711 40.9085 35.3431C40.9085 34.2461 44.2975 30.0291 48.6805 25.6721C55.0745 19.3151 57.0115 17.9451 59.6035 17.9451C65.3545 17.9451 70.9325 11.3691 67.8215 8.25809C67.0385 7.47509 67.0385 6.9831 67.8215 6.4991C69.4805 5.4731 69.1155 1.9621 67.2765 1.2561C66.3785 0.911096 64.8245 1.1411 63.8225 1.7671C62.6635 2.4911 61.7815 2.54809 61.3955 1.92509C60.2195 0.0210947 57.0545 0.983095 54.4975 4.02209ZM26.1085 16.6171C21.6285 18.8251 16.0775 25.5261 15.3015 29.6641C13.5645 38.9251 16.6605 46.7791 24.1565 52.1251C26.8635 54.0561 28.6655 54.4451 34.9085 54.4451C43.3245 54.4451 46.6005 52.8371 51.6355 46.2361C53.8435 43.3411 54.4185 41.4161 54.6755 36.0551C54.8495 32.4201 54.5385 28.7701 53.9835 27.9451C52.1715 25.2521 48.7285 29.8871 48.5125 35.3091C47.8325 52.4121 23.3425 53.2431 21.2665 36.2331C20.3305 28.5631 26.4845 21.6621 34.5445 21.3411C39.9215 21.1271 44.6385 17.6601 41.9085 15.9271C39.5165 14.4101 29.7205 14.8371 26.1085 16.6171Z" fill="#C6922F"/>
</svg>
