<svg width="67" height="47" viewBox="0 0 67 47" fill="none" xmlns="http://www.w3.org/2000/svg">
<path fill-rule="evenodd" clip-rule="evenodd" d="M0.282137 45.6419C-0.403863 43.8529 -0.233864 43.6149 13.8001 26.7729C20.0681 19.2509 25.7861 13.0959 26.5051 13.0959C27.2241 13.0959 30.4211 16.2079 33.6081 20.0119C36.7951 23.8159 39.7181 26.8539 40.1031 26.7619C40.4881 26.6709 44.8401 21.8709 49.7741 16.0959L58.7451 5.59593L51.6191 5.29793C44.1521 4.98593 41.6461 3.92993 42.5811 1.49193C43.0361 0.307932 45.3211 0.0869301 54.7721 0.314931L66.4031 0.59593L66.6841 12.2269C66.9121 21.6779 66.6911 23.9629 65.5071 24.4179C63.1561 25.3199 62.0301 22.9339 61.7061 16.3629L61.4031 10.2069L51.4031 21.8409C45.9031 28.2399 40.8871 33.6369 40.2571 33.8339C39.6271 34.0319 36.5261 31.1339 33.3671 27.3949C30.2081 23.6549 27.2871 20.4629 26.8751 20.2999C26.4641 20.1369 21.0601 26.0999 14.8681 33.5499C3.98614 46.6419 1.46714 48.7299 0.282137 45.6419Z" fill="#C6922F"/>
</svg>
