<svg width="63" height="78" viewBox="0 0 63 78" fill="none" xmlns="http://www.w3.org/2000/svg">
<path fill-rule="evenodd" clip-rule="evenodd" d="M16.6081 4.49761C9.51705 6.91661 2.87905 9.65161 1.85805 10.5766C0.161049 12.1116 4.88799e-05 14.0556 4.88799e-05 32.9456C4.88799e-05 59.5706 -0.148951 59.2246 16.0061 70.1976C25.6741 76.7646 28.045 77.9476 31.536 77.9476C35.033 77.9476 37.374 76.7746 47.002 70.1976C63.138 59.1756 63 59.4956 63 32.9456C63 13.5876 62.873 12.1426 61.017 10.4636C58.751 8.41261 34.792 -0.0913871 31.607 0.0246129C30.448 0.0666129 23.6981 2.07961 16.6081 4.49761ZM18.5 10.8596L7.50005 14.6136L7.22905 34.2416L6.95805 53.8686L9.72905 56.8486C13.733 61.1536 29.037 70.9476 31.759 70.9476C34.225 70.9476 50.145 60.7136 53.5 56.9716C55.359 54.8986 55.5 53.3316 55.5 34.6846V14.6286L44.0331 10.7886C37.7261 8.67561 31.8761 6.98261 31.0331 7.02661C30.1901 7.06961 24.55 8.79461 18.5 10.8596ZM27 23.9476C25.9 25.0476 25 27.0926 25 28.4926C25 31.3236 29.032 35.9476 31.5 35.9476C33.881 35.9476 38 31.3646 38 28.7156C38 22.6616 31.223 19.7246 27 23.9476ZM25.071 39.6996C20.919 41.8166 17.5031 46.2106 18.3321 48.3696C18.8391 49.6906 20.979 49.9476 31.5 49.9476C42.021 49.9476 44.161 49.6906 44.668 48.3696C46.096 44.6486 37.631 37.9506 31.5 37.9506C29.85 37.9506 26.957 38.7376 25.071 39.6996Z" fill="#C6922F"/>
</svg>
