<svg width="94" height="91" viewBox="0 0 94 91" fill="none" xmlns="http://www.w3.org/2000/svg">
<path fill-rule="evenodd" clip-rule="evenodd" d="M66.1546 0.608901C65.1826 1.0019 64.9046 10.5329 64.9046 43.5299V85.9469H60.9266H56.9476L56.6766 66.6969L56.4046 47.4469H46.9046H37.4046L37.1326 66.6969L36.8616 85.9469H32.8826H28.9046V63.0539C28.9046 43.1009 28.7016 40.0829 27.3226 39.5539C26.4526 39.2199 22.1936 38.9469 17.8576 38.9469C11.0876 38.9469 9.82862 39.2199 8.93962 40.8809C8.31862 42.0429 7.90462 51.4079 7.90462 64.3179V85.8199L4.65462 86.1339C2.16363 86.3739 1.32963 86.9719 1.08463 88.6969L0.765625 90.9469H46.9046H93.0436L92.7246 88.6969C92.4796 86.9719 91.6456 86.3739 89.1546 86.1339L85.9046 85.8199V44.8179C85.9046 18.4659 85.5346 3.1239 84.8696 1.8809C83.9686 0.198901 82.7646 -0.0430981 75.6196 0.0259019C71.1016 0.0689019 66.8426 0.331901 66.1546 0.608901ZM69.9046 45.9469V85.9469H74.9046H79.9046V45.9469V5.9469H74.9046H69.9046V45.9469ZM13.9046 65.4469V85.9469H18.9046H23.9046V65.4469V44.9469H18.9046H13.9046V65.4469ZM41.9046 68.9469V85.9469H46.9046H51.9046V68.9469V51.9469H46.9046H41.9046V68.9469Z" fill="#C6922F"/>
</svg>
